<svg xmlns="http://www.w3.org/2000/svg" id="Titles" viewBox="0 0 64 64"><defs><style>.cls-1,.cls-2,.cls-3{fill:none}.cls-1,.cls-3{stroke:#000;stroke-miterlimit:10;stroke-width:2px}.cls-3{stroke-linecap:round}</style></defs><title>pbi-exploring-data</title><polyline points="8 36 2 36 2 3 48 3 48 10" class="cls-1"/><rect width="32" height="32" x="33" y="23" class="cls-2"/><g><g><rect width="48" height="48" x="16" y="17" class="cls-2"/><rect width="48" height="48" x="16" y="17" class="cls-2"/><rect width="48" height="48" x="16" y="17" class="cls-2"/></g><line x1="36.42" x2="21.36" y1="47.58" y2="62.64" class="cls-3"/><path d="M29.72,42H9V11H53v9.05a17.88,17.88,0,0,1,2,.85V9H7V44H30.42A17.92,17.92,0,0,1,29.72,42Z"/><path d="M47,22A15,15,0,1,0,62,37,15,15,0,0,0,47,22Z" class="cls-1"/></g><rect width="4" height="14" x="12" y="27"/><rect width="4" height="25" x="18" y="16"/><rect width="4" height="21" x="24" y="20"/></svg>